<svg version="1.1" id="svg2" inkscape:output_extension="org.inkscape.output.svg.inkscape" inkscape:version="0.46" sodipodi:version="0.32" xmlns:cc="http://creativecommons.org/ns#" xmlns:dc="http://purl.org/dc/elements/1.1/" xmlns:inkscape="http://www.inkscape.org/namespaces/inkscape" xmlns:rdf="http://www.w3.org/1999/02/22-rdf-syntax-ns#" xmlns:sodipodi="http://sodipodi.sourceforge.net/DTD/sodipodi-0.dtd" xmlns:svg="http://www.w3.org/2000/svg" xmlns="http://www.w3.org/2000/svg" xmlns:xlink="http://www.w3.org/1999/xlink" x="0px" y="0px" viewBox="0 0 94.8 69.6" style="enable-background:new 0 0 94.8 69.6;" xml:space="preserve">
 <style type="text/css">
  .st0{fill-rule:evenodd;clip-rule:evenodd;fill:#161413;}
 </style>
 <defs>
  <inkscape:perspective id="perspective41" inkscape:persp3d-origin="121.25 : 80.833333 : 1" inkscape:vp_x="0 : 121.25 : 1" inkscape:vp_y="0 : 1000 : 0" inkscape:vp_z="242.5 : 121.25 : 1" sodipodi:type="inkscape:persp3d">
  </inkscape:perspective>
 </defs>
 <sodipodi:namedview bordercolor="#666666" borderopacity="1.0" gridtolerance="10.0" guidetolerance="10.0" id="base" inkscape:current-layer="svg2" inkscape:cx="-0.40702423" inkscape:cy="9.9095772" inkscape:pageopacity="0.0" inkscape:pageshadow="2" inkscape:window-height="667" inkscape:window-width="640" inkscape:window-x="611" inkscape:window-y="368" inkscape:zoom="10.777182" objecttolerance="10.0" pagecolor="#ffffff" showgrid="false">
 </sodipodi:namedview>
 <g id="g2452" transform="matrix(2.4763374,0,0,2.4763374,-150.24767,-82.943284)">
  <g id="g28" transform="matrix(1.8302345,0,0,1.8302345,63.773317,33.494341)">
   <path id="path30" class="st0" d="M8.8,14.4c-1.1,0.6-2.4,1-3.8,1c-2.8,0-5.3-1.5-6.6-3.8c0,0,0,0,0,0c0,0,0,0,0,0l1.1-0.6l1.1-0.6
			c0,0,0,0,0,0c0.9,1.5,2.6,2.5,4.5,2.5c0.6,0,1.2-0.1,1.7-0.3c-1.2-1.3-1.9-3.1-1.9-5c0-1.9,0.7-3.6,1.8-5C6.2,2.5,5.6,2.4,5,2.4
			c-1.9,0-3.6,1-4.5,2.6c0,0,0,0,0,0l-2.2-1.1c0,0,0,0,0-0.1C-0.3,1.6,2.2,0,5,0c1.4,0,2.7,0.4,3.8,1c1.1-0.6,2.4-1,3.8-1
			c2.8,0,5.3,1.6,6.7,3.9c0,0,0,0,0,0.1l-2.2,1.1c0,0,0,0,0,0c-0.9-1.6-2.7-2.6-4.5-2.6c-0.6,0-1.2,0.1-1.7,0.3
			c1.1,1.3,1.8,3.1,1.8,5c0,1.9-0.7,3.6-1.9,5c0.5,0.2,1.1,0.3,1.7,0.3c1.9,0,3.5-1,4.5-2.5c0,0,0,0,0,0l1.1,0.6l1.1,0.6
			c0,0,0,0,0,0c0,0,0,0,0,0c-1.3,2.3-3.8,3.8-6.6,3.8C11.1,15.4,9.8,15,8.8,14.4z M8.8,11.3c-0.9-0.9-1.5-2.2-1.5-3.6
			c0-1.4,0.5-2.7,1.5-3.6c0.9,0.9,1.5,2.2,1.5,3.6C10.2,9.1,9.7,10.4,8.8,11.3z">
   </path>
  </g>
 </g>
</svg>